<svg xmlns="http://www.w3.org/2000/svg" width="32" height="33" viewBox="0 0 32 33" fill="none">
  <path d="M21.52 4.44672L9.48003 8.44672C1.3867 11.1534 1.3867 15.5667 9.48003 18.2601L13.0534 19.4467L14.24 23.0201C16.9334 31.1134 21.36 31.1134 24.0534 23.0201L28.0667 10.9934C29.8534 5.59339 26.92 2.64672 21.52 4.44672ZM21.9467 11.6201L16.88 16.7134C16.68 16.9134 16.4267 17.0067 16.1734 17.0067C15.92 17.0067 15.6667 16.9134 15.4667 16.7134C15.08 16.3267 15.08 15.6867 15.4667 15.3001L20.5334 10.2067C20.92 9.82006 21.56 9.82006 21.9467 10.2067C22.3334 10.5934 22.3334 11.2334 21.9467 11.6201Z" fill="#232323"/>
</svg>